<svg width="33" height="33" viewBox="0 0 33 33" fill="none" xmlns="http://www.w3.org/2000/svg">
<g clip-path="url(#clip0_111_680)">
<path d="M24.25 26C24.25 23.9288 21.4512 22.25 18 22.25C14.5488 22.25 11.75 23.9288 11.75 26M29.25 22.25C29.25 20.7125 27.7075 19.3913 25.5 18.8125M6.75 22.25C6.75 20.7125 8.2925 19.3913 10.5 18.8125M25.5 13.795C25.8703 13.4676 26.1723 13.0702 26.3885 12.6258C26.6047 12.1813 26.7309 11.6984 26.7598 11.205C26.7887 10.7115 26.7198 10.2172 26.5571 9.7505C26.3943 9.28378 26.1408 8.85385 25.8113 8.48543C25.4818 8.11701 25.0826 7.81738 24.6369 7.60376C24.1911 7.39014 23.7076 7.26675 23.214 7.24069C22.7204 7.21463 22.2265 7.28641 21.7607 7.4519C21.2949 7.61739 20.8665 7.87334 20.5 8.205M10.5 13.795C9.76537 13.1302 9.3237 12.2017 9.27146 11.2123C9.21922 10.2228 9.56066 9.25297 10.2212 8.51449C10.8817 7.77601 11.8077 7.32895 12.7968 7.27096C13.7859 7.21297 14.7577 7.54877 15.5 8.205M18 18.5C17.5075 18.5 17.0199 18.403 16.5649 18.2146C16.11 18.0261 15.6966 17.7499 15.3483 17.4017C15.0001 17.0534 14.7239 16.64 14.5355 16.1851C14.347 15.7301 14.25 15.2425 14.25 14.75C14.25 14.2575 14.347 13.7699 14.5355 13.3149C14.7239 12.86 15.0001 12.4466 15.3483 12.0984C15.6966 11.7501 16.11 11.4739 16.5649 11.2855C17.0199 11.097 17.5075 11 18 11C18.9946 11 19.9484 11.3951 20.6517 12.0984C21.3549 12.8016 21.75 13.7554 21.75 14.75C21.75 15.7446 21.3549 16.6984 20.6517 17.4017C19.9484 18.1049 18.9946 18.5 18 18.5Z" stroke="#4318FF" stroke-width="2.16667" stroke-linecap="round" stroke-linejoin="round"/>
</g>
<defs>
<clipPath id="clip0_111_680">
<rect width="33" height="33" fill="white"/>
</clipPath>
</defs>
</svg>
